<svg width="32" height="32" viewBox="0 0 32 32" fill="none" xmlns="http://www.w3.org/2000/svg">
  <path d="M26.2843 0H5.71569C2.56283 0 0 2.56283 0 5.71569V26.2843C0 29.4372 2.56283 32 5.71569 32H26.2843C29.4372 32 32 29.4372 32 26.2843V5.71569C32 2.56283 29.4372 0 26.2843 0ZM16 9.14286C12.2897 9.14286 9.14286 12.2897 9.14286 16C9.14286 19.7103 12.2897 22.8571 16 22.8571C19.7103 22.8571 22.8571 19.7103 22.8571 16C22.8571 12.2897 19.7103 9.14286 16 9.14286ZM24.3091 5.51617C24.8125 5.51617 25.2252 5.90552 25.2252 6.40909C25.2252 6.9125 24.8359 7.32519 24.3323 7.32519C23.8287 7.32519 23.416 6.93584 23.416 6.43227C23.416 5.92869 23.8054 5.51617 24.3091 5.51617ZM16 6.85714C13.3023 6.85714 11.1429 9.01652 11.1429 11.7143C11.1429 14.412 13.3023 16.5714 16 16.5714C18.6977 16.5714 20.8571 14.412 20.8571 11.7143C20.8571 9.01652 18.6977 6.85714 16 6.85714ZM25.706 24.823C25.706 26.006 24.6951 27.0169 23.5121 27.0169H8.48793C7.30492 27.0169 6.29403 26.006 6.29403 24.823V13.2574H8.22069C7.99877 13.825 7.85714 14.4286 7.85714 15.0582V24.823C7.85714 25.8076 8.64961 26.6 9.63414 26.6H22.3659C23.3504 26.6 24.1429 25.8076 24.1429 24.823V15.0582C24.1429 14.4286 24.0012 13.825 23.7793 13.2574H25.706V24.823Z" fill="white"/>
</svg>

</svg>