<?xml version="1.0" standalone="no"?>
<svg xmlns:xlink="http://www.w3.org/1999/xlink" id="wave" style="transform:rotate(0deg); transition: 0.3s" viewBox="0 0 1440 490" version="1.1" xmlns="http://www.w3.org/2000/svg"><defs><linearGradient id="sw-gradient-0" x1="0" x2="0" y1="1" y2="0"><stop stop-color="rgba(132.177, 62.374, 227.501, 1)" offset="0%"/><stop stop-color="rgba(89.349, 11, 255, 1)" offset="100%"/></linearGradient></defs><path style="transform:translate(0, 0px); opacity:1" fill="url(#sw-gradient-0)" d="M0,196L130.9,245L261.8,294L392.7,196L523.6,245L654.5,0L785.5,147L916.4,98L1047.3,343L1178.2,147L1309.1,147L1440,441L1570.9,49L1701.8,245L1832.7,147L1963.6,196L2094.5,441L2225.5,441L2356.4,441L2487.3,392L2618.2,245L2749.1,392L2880,441L3010.9,294L3141.8,294L3141.8,490L3010.9,490L2880,490L2749.1,490L2618.2,490L2487.3,490L2356.4,490L2225.5,490L2094.5,490L1963.6,490L1832.7,490L1701.8,490L1570.9,490L1440,490L1309.1,490L1178.2,490L1047.3,490L916.4,490L785.5,490L654.5,490L523.6,490L392.7,490L261.8,490L130.9,490L0,490Z"/><defs><linearGradient id="sw-gradient-1" x1="0" x2="0" y1="1" y2="0"><stop stop-color="rgba(230.482, 62, 243, 1)" offset="0%"/><stop stop-color="rgba(147.206, 11, 255, 1)" offset="100%"/></linearGradient></defs><path style="transform:translate(0, 50px); opacity:0.9" fill="url(#sw-gradient-1)" d="M0,245L130.9,392L261.8,392L392.7,147L523.6,98L654.5,0L785.5,147L916.4,441L1047.3,49L1178.2,343L1309.1,294L1440,294L1570.9,343L1701.8,147L1832.7,392L1963.6,343L2094.5,49L2225.5,343L2356.4,147L2487.3,98L2618.2,245L2749.1,245L2880,294L3010.9,147L3141.8,392L3141.8,490L3010.9,490L2880,490L2749.1,490L2618.2,490L2487.3,490L2356.4,490L2225.5,490L2094.5,490L1963.6,490L1832.7,490L1701.8,490L1570.9,490L1440,490L1309.1,490L1178.2,490L1047.3,490L916.4,490L785.5,490L654.5,490L523.6,490L392.7,490L261.8,490L130.9,490L0,490Z"/><defs><linearGradient id="sw-gradient-2" x1="0" x2="0" y1="1" y2="0"><stop stop-color="rgba(189.894, 91.647, 220.67, 1)" offset="0%"/><stop stop-color="rgba(114.145, 11, 255, 1)" offset="100%"/></linearGradient></defs><path style="transform:translate(0, 100px); opacity:0.8" fill="url(#sw-gradient-2)" d="M0,392L130.9,196L261.8,49L392.7,0L523.6,147L654.5,49L785.5,49L916.4,441L1047.3,49L1178.2,343L1309.1,49L1440,49L1570.9,147L1701.8,0L1832.7,147L1963.6,196L2094.5,147L2225.5,441L2356.4,245L2487.3,294L2618.2,245L2749.1,49L2880,49L3010.9,98L3141.8,147L3141.8,490L3010.9,490L2880,490L2749.1,490L2618.2,490L2487.3,490L2356.4,490L2225.5,490L2094.5,490L1963.6,490L1832.7,490L1701.8,490L1570.9,490L1440,490L1309.1,490L1178.2,490L1047.3,490L916.4,490L785.5,490L654.5,490L523.6,490L392.7,490L261.8,490L130.9,490L0,490Z"/><defs><linearGradient id="sw-gradient-3" x1="0" x2="0" y1="1" y2="0"><stop stop-color="rgba(243, 106, 62, 1)" offset="0%"/><stop stop-color="rgba(122.41, 11, 255, 1)" offset="100%"/></linearGradient></defs><path style="transform:translate(0, 150px); opacity:0.7" fill="url(#sw-gradient-3)" d="M0,245L130.9,147L261.8,98L392.7,294L523.6,98L654.5,147L785.5,49L916.4,441L1047.3,392L1178.2,196L1309.1,343L1440,441L1570.9,245L1701.8,441L1832.7,147L1963.6,147L2094.5,343L2225.5,147L2356.4,0L2487.3,245L2618.2,98L2749.1,441L2880,294L3010.9,343L3141.8,147L3141.8,490L3010.9,490L2880,490L2749.1,490L2618.2,490L2487.3,490L2356.4,490L2225.5,490L2094.5,490L1963.6,490L1832.7,490L1701.8,490L1570.9,490L1440,490L1309.1,490L1178.2,490L1047.3,490L916.4,490L785.5,490L654.5,490L523.6,490L392.7,490L261.8,490L130.9,490L0,490Z"/></svg>